<?xml version="1.0" encoding="utf-8"?>
<!-- Generator: Adobe Illustrator 27.1.0, SVG Export Plug-In . SVG Version: 6.00 Build 0)  -->
<svg version="1.1" id="Ebene_1" xmlns="http://www.w3.org/2000/svg" xmlns:xlink="http://www.w3.org/1999/xlink" x="0px" y="0px"
	 viewBox="0 0 783.3 248.5" style="enable-background:new 0 0 783.3 248.5;" xml:space="preserve">
<style type="text/css">
	.st0{fill:#120EC4;}
</style>
<g>
	<g id="Ebene_1_00000091703518041742850920000018240784158323066026_">
		<g>
			<path class="st0" d="M545.6,133.6c1.4,5.9,3.7,11,6.9,15.6c8.9,12.6,21.3,19.1,36.4,20.4c17.1,1.6,32.6-3,45.8-14.2
				c2.2-1.9,4.4-3.9,6.8-6c7,6,14.5,12.4,22.2,19c-4.2,5.3-8.8,9.8-14,13.7c-18.7,13.9-39.8,19.5-62.9,17.9
				c-18.4-1.2-35-7.2-49.2-19.1c-16.1-13.4-25.4-30.5-27.8-51.3c-2.5-20.8,1.8-40.2,14.1-57.3c12.3-17.1,29.2-27.4,49.8-31.2
				c21.4-4,41.9-0.9,60.5,10.8c22.1,14,33.6,34.6,36,60.3c0.6,6.2-0.1,12.5-0.1,18.8c0,2-0.9,2.5-2.8,2.5c-39.5-0.1-79.1,0-118.6,0
				C547.7,133.6,546.8,133.6,545.6,133.6L545.6,133.6z M545.5,105.7h88.9c-4.2-19.6-21.9-37.2-48.2-35.5
				C564.3,71.7,549.2,88.4,545.5,105.7z"/>
			<path class="st0" d="M327.2,119.1c-0.1,42.3-29.4,75.4-70.5,80.5c-23.4,2.9-45-1.9-63.8-16.6c-16.9-13.1-26.5-30.7-29.2-51.8
				c-2.3-17.9,0.4-35,9.3-50.8c12.4-21.9,31.5-34.8,56.1-39.2c21.8-4,42.6-0.6,61.5,11.3c20.8,13.1,32.5,32.3,35.9,56.5
				c0.2,1.2,0.3,2.5,0.4,3.7C327,115.2,327.1,117.7,327.2,119.1L327.2,119.1z M292.3,120c-0.1-27.3-20.6-48-47.4-47.9
				c-26.9,0.1-47.4,20.9-47.4,48c0,27.1,20.8,47.9,47.7,47.9C271.9,167.9,292.3,147.1,292.3,120z"/>
			<path class="st0" d="M729.7,196.5h-33.6V43.6h33.6v21.5c0.2,0.1,0.3,0.2,0.5,0.3c6.2-8.2,13.8-14.8,23.2-19.2
				c9.4-4.3,19.4-5.7,29.8-5c0,0.8,0.1,1.4,0.1,2.1c0,10,0,20,0,30c0,2-0.6,2.5-2.5,2.4c-8.2-0.2-16.4,0.5-24.1,3.6
				c-16,6.4-24.2,18.6-26.5,35.2c-0.4,3.1-0.5,6.3-0.5,9.4c0,23.3,0,46.6,0,69.9C729.6,194.6,729.6,195.5,729.7,196.5L729.7,196.5z"
				/>
			<path class="st0" d="M153.2,57.3L153.2,57.3C153.2,25.7,127.5,0,95.8,0H0v101.2l0,0v95.5h36.4v0h-0.9v-72.1h8.8
				c42.9,0,67.7,30.1,67.7,68.8v3.4h41.2v-3.4c0-33.9-18.2-63.6-45.4-79.9C133.7,107.9,153.2,84.9,153.2,57.3L153.2,57.3z M117.5,59
				c0,14.9-12.1,27-27,27H35.1V32h55.4C105.4,32,117.5,44.1,117.5,59L117.5,59z"/>
			<path class="st0" d="M450.3,197.2c-40.9,0-54.1,1.3-60.8-2.2c-10.1-5.4-10.4-17.6-1.9-25.5c1.3-1.3,2.5-1.3,4.1-0.9
				c72.4,17,108.3-38.7,89.7-90.6c0,0,0-0.1,0-0.1c20.7-7.6,26.4-18.2,26.4-49.3c0,0,0-0.1-0.1-0.1h-30.7c0,0-0.1,0-0.1,0.1
				c0,20.7-6,32-16.1,25.4c-29.3-19.5-69.6-18.3-94.1,3.8l0,0c-31.5,33-19.9,78.6,2.5,96.6c0,0,0,0.1,0,0.1
				c-22.3,15.4-28,46.9-9.1,64.5c8.2,6.9,18.6,9.8,29.3,10.4l0,0h53.8c16.4,0,25.5,6,28,19.1c0,0,0,0.1,0.1,0.1
				c4.1-0.3,8.2-0.7,12.4-1.1h0c7.5-0.9,14.9-2,22.4-3.2c0,0,0,0,0-0.1C504.2,217.5,481.4,197.2,450.3,197.2L450.3,197.2z
				 M417.2,70.9c19.5,0,35.6,16.1,35.6,35.6s-16.1,35.9-35.6,35.9s-35.9-16.1-35.9-35.9S397.4,70.9,417.2,70.9z"/>
		</g>
	</g>
</g>
</svg>
